# xmcd
#
# Track frame offsets:
# 150
# 15372
# 31812
# 48910
# 63416
# 79559
# 99020
# 117720
# 135399
# 149656
# 166699
# 184751
# 199284
# 218013
#
# Disc length: 3159 seconds
#
#
# Revision: 0
# Processed by: cddbd v1.5.2PL0 Copyright (c) Steve Scherf et al.
# Submitted via: FreeRIP 2.951 
#
DISCID=b40c550e
DTITLE=Leonardo - Audincia
DYEAR=2006
DGENRE=Sertanejo
TTITLE0=Se_ainda_existe_amor
TTITLE1=Nervos_de_Aço
TTITLE2=Pareço_um_menini
TTITLE3=Meu_mel
TTITLE4=Fantasias
TTITLE5=Coraçãop_espinhaço
TTITLE6=|Sinha_Moça
TTITLE7=Um_sonhador
TTITLE8=Te_amo_demais
TTITLE9=Quero_acender_O_teu_fogo
TTITLE10=Quero_colo
TTITLE11=Todas_as_coisas_do_mundo
TTITLE12=Cristal_quebrado
TTITLE13=Eu_juro
EXTD=
EXTT0=
EXTT1=
EXTT2=
EXTT3=
EXTT4=
EXTT5=
EXTT6=
EXTT7=
EXTT8=
EXTT9=
EXTT10=
EXTT11=
EXTT12=
EXTT13=
PLAYORDER=
